<svg width="24" height="24" viewBox="0 0 24 24" fill="none" xmlns="http://www.w3.org/2000/svg">
<g clip-path="url(#clip0_132_5311)">
<path d="M21.4286 0H2.57143C1.88944 0 1.23539 0.270577 0.753156 0.752208C0.270917 1.23383 0 1.88707 0 2.56819V21.4016C0 22.0828 0.270917 22.736 0.753156 23.2176C1.23539 23.6992 1.88944 23.9698 2.57143 23.9698H21.4286C22.1105 23.9698 22.7646 23.6992 23.2468 23.2176C23.7291 22.736 24 22.0828 24 21.4016V2.56819C24 1.88707 23.7291 1.23383 23.2468 0.752208C22.7646 0.270577 22.1105 0 21.4286 0ZM22.2857 21.4016C22.2857 21.6287 22.1954 21.8464 22.0346 22.0069C21.8739 22.1675 21.6559 22.2577 21.4286 22.2577H10.2857V17.9774H18.8572C19.0845 17.9774 19.3025 17.8871 19.4632 17.7266C19.624 17.5661 19.7143 17.3483 19.7143 17.1213C19.7143 16.8943 19.624 16.6765 19.4632 16.516C19.3025 16.3554 19.0845 16.2652 18.8572 16.2652H9.42858C9.20124 16.2652 8.9832 16.3554 8.82246 16.516C8.66172 16.6765 8.57142 16.8943 8.57142 17.1213V22.2577H2.57143C2.3441 22.2577 2.12608 22.1675 1.96534 22.0069C1.80459 21.8464 1.71428 21.6287 1.71428 21.4016V10.2728H8.57142V11.9849C8.57142 12.2119 8.66172 12.4297 8.82246 12.5902C8.9832 12.7508 9.20124 12.841 9.42858 12.841C9.65592 12.841 9.8739 12.7508 10.0346 12.5902C10.1954 12.4297 10.2857 12.2119 10.2857 11.9849V6.84852C10.2857 6.62148 10.1954 6.40374 10.0346 6.24318C9.8739 6.08262 9.65592 5.99245 9.42858 5.99245C9.20124 5.99245 8.9832 6.08262 8.82246 6.24318C8.66172 6.40374 8.57142 6.62148 8.57142 6.84852V8.56062H1.71428V2.56819C1.71428 2.34115 1.80459 2.12341 1.96534 1.96286C2.12608 1.80232 2.3441 1.71213 2.57143 1.71213H14.5714V11.1289C14.5714 11.3559 14.6617 11.5736 14.8225 11.7342C14.9832 11.8947 15.2012 11.9849 15.4286 11.9849H18.8572C19.0845 11.9849 19.3025 11.8947 19.4632 11.7342C19.624 11.5736 19.7143 11.3559 19.7143 11.1289C19.7143 10.9018 19.624 10.6841 19.4632 10.5235C19.3025 10.363 19.0845 10.2728 18.8572 10.2728H16.2857V1.71213H21.4286C21.6559 1.71213 21.8739 1.80232 22.0346 1.96286C22.1954 2.12341 22.2857 2.34115 22.2857 2.56819V21.4016Z" fill="#222222"/>
</g>
<defs>
<clipPath id="clip0_132_5311">
<rect width="24" height="24" fill="white"/>
</clipPath>
</defs>
</svg>
