<svg width="35" height="35" viewBox="0 0 35 35" fill="none" xmlns="http://www.w3.org/2000/svg">
<path fill-rule="evenodd" clip-rule="evenodd" d="M20.9386 7.58331H14.0611L11.1444 11.9583H4.6665V27.4166H30.3332V11.9583H23.8553L20.9386 7.58331ZM21.484 5.83331C21.6041 5.83338 21.7223 5.86309 21.8281 5.91983C21.934 5.97656 22.0241 6.05855 22.0907 6.15852L24.7915 10.2083H30.6248C31.0116 10.2083 31.3825 10.362 31.656 10.6354C31.9295 10.9089 32.0832 11.2799 32.0832 11.6666V27.7083C32.0832 28.0951 31.9295 28.466 31.656 28.7395C31.3825 29.013 31.0116 29.1666 30.6248 29.1666H4.37484C3.98806 29.1666 3.61713 29.013 3.34364 28.7395C3.07015 28.466 2.9165 28.0951 2.9165 27.7083V11.6666C2.9165 11.2799 3.07015 10.9089 3.34364 10.6354C3.61713 10.362 3.98806 10.2083 4.37484 10.2083H10.2082L12.909 6.15852C12.9755 6.05855 13.0657 5.97656 13.1715 5.91983C13.2774 5.86309 13.3956 5.83338 13.5157 5.83331H21.484ZM17.4998 23.0416C18.5828 23.0416 19.6214 22.6114 20.3872 21.8457C21.153 21.0799 21.5832 20.0413 21.5832 18.9583C21.5832 17.8753 21.153 16.8367 20.3872 16.071C19.6214 15.3052 18.5828 14.875 17.4998 14.875C16.4169 14.875 15.3783 15.3052 14.6125 16.071C13.8467 16.8367 13.4165 17.8753 13.4165 18.9583C13.4165 20.0413 13.8467 21.0799 14.6125 21.8457C15.3783 22.6114 16.4169 23.0416 17.4998 23.0416ZM17.4998 24.7916C15.9527 24.7916 14.469 24.1771 13.375 23.0831C12.2811 21.9891 11.6665 20.5054 11.6665 18.9583C11.6665 17.4112 12.2811 15.9275 13.375 14.8335C14.469 13.7396 15.9527 13.125 17.4998 13.125C19.0469 13.125 20.5307 13.7396 21.6246 14.8335C22.7186 15.9275 23.3332 17.4112 23.3332 18.9583C23.3332 20.5054 22.7186 21.9891 21.6246 23.0831C20.5307 24.1771 19.0469 24.7916 17.4998 24.7916Z" fill="#E84923"/>
</svg>
