<svg width="35" height="35" viewBox="0 0 35 35" fill="none" xmlns="http://www.w3.org/2000/svg">
<g clip-path="url(#clip0_21_7907)">
<path d="M34.6632 12.4708L30.6353 8.44288C30.4354 8.24308 30.1113 8.24294 29.9113 8.44288C29.7114 8.64288 29.7114 8.96698 29.9113 9.16691L33.9392 13.1949C33.9693 13.2249 33.9756 13.2592 33.9756 13.2827C33.9756 13.3062 33.9693 13.3405 33.9392 13.3706L32.2705 15.0392C32.2404 15.0693 32.2061 15.0757 32.1826 15.0757C32.1592 15.0757 32.1248 15.0693 32.0948 15.0392L25.4918 8.43639C25.4433 8.38793 25.4433 8.30902 25.4918 8.26062L27.1605 6.59187C27.2089 6.54341 27.2878 6.54327 27.3362 6.59187L28.2135 7.46915C28.4135 7.66902 28.7376 7.66902 28.9376 7.46915C29.1375 7.26915 29.1375 6.94505 28.9376 6.74512L28.0602 5.86784C27.6124 5.42006 26.8841 5.42033 26.4364 5.86784L24.7677 7.53659C24.4184 7.88588 24.343 8.40568 24.5388 8.83018C23.3607 9.73163 21.6133 9.59224 20.0661 9.46855C19.921 9.45695 17.9524 9.30282 17.5721 9.27572C16.8543 9.22439 16.0074 9.17217 15.1506 9.17217C15.1362 9.17217 15.1217 9.17224 15.1075 9.17224C14.8133 9.17285 14.5212 9.23224 14.246 9.34268C13.5346 9.37981 12.8426 9.44684 12.1591 9.60016C11.6683 9.71019 11.166 9.56739 10.8164 9.21763L10.4503 8.85155C10.6587 8.42329 10.5865 7.89175 10.2313 7.53659L8.56258 5.86784C8.11487 5.42026 7.38653 5.42026 6.93875 5.86784L0.335897 12.4708C0.118967 12.6877 -0.000488281 12.976 -0.000488281 13.2828C-0.000488281 13.5894 0.118967 13.8778 0.335828 14.0947L2.00451 15.7634C2.22144 15.9803 2.50977 16.0997 2.81646 16.0997C2.99913 16.0997 3.17476 16.0565 3.33312 15.9765C3.33312 15.9765 4.81388 17.4178 5.00058 17.6049C5.25546 17.8604 5.29914 18.2679 5.34966 18.7397C5.37641 18.9889 5.40399 19.2466 5.46652 19.5028C5.66686 20.3245 6.02352 21.1118 6.52659 21.8432C6.6868 22.0761 7.00544 22.135 7.23854 21.9748C7.47145 21.8145 7.53036 21.4958 7.37015 21.2628C6.93786 20.6344 6.63206 19.9606 6.46127 19.2602C6.41485 19.0699 6.39199 18.8565 6.36782 18.6306C6.30564 18.0503 6.23512 17.3927 5.72556 16.8818C5.53259 16.6883 4.09879 15.293 4.09879 15.293L9.77133 9.62043L10.0925 9.94159C10.6916 10.5406 11.5477 10.7864 12.3834 10.5992C12.5733 10.5566 12.766 10.5215 12.961 10.492C12.7372 10.9021 12.6299 11.3645 12.6598 11.8236C12.7433 13.1004 13.826 14.1233 15.1248 14.1524L16.0469 14.1728C16.0524 14.1728 16.0578 14.1729 16.0633 14.1729L17.167 14.162C17.9787 14.9797 24.4598 21.5157 24.8456 21.8751C25.1963 22.2018 25.5925 22.5794 25.6079 23.093C25.621 23.5314 25.283 23.9803 24.8709 24.117C24.4665 24.2511 24.0076 24.1498 23.7051 23.8476L17.4426 17.5851C17.2426 17.3853 16.9185 17.3853 16.7186 17.5851C16.5186 17.7851 16.5186 18.1092 16.7186 18.3092L24.3069 25.8975C24.6289 26.3563 24.5644 26.9834 24.151 27.3696C23.7119 27.7798 22.9979 27.7563 22.5586 27.3171L15.132 19.8956C14.932 19.6958 14.6079 19.6957 14.408 19.8956C14.208 20.0956 14.208 20.4197 14.408 20.6196L20.3124 26.5242C20.7466 26.9647 20.745 27.6761 20.3068 28.1142C19.8669 28.5543 19.1507 28.5544 18.7103 28.114L12.8129 22.2147C12.6129 22.0148 12.2888 22.0148 12.0889 22.2147C11.889 22.4147 11.889 22.7388 12.0889 22.9387C12.0889 22.9387 14.8463 25.7025 14.8619 25.7182C15.0751 25.9313 15.1925 26.2148 15.1925 26.5163C15.1925 26.8178 15.0751 27.1012 14.8619 27.3144C14.4218 27.7546 13.7057 27.7544 13.2657 27.3145C13.2387 27.2875 10.5474 24.5947 8.91644 22.9468C8.7176 22.7459 8.39343 22.7442 8.19248 22.943C7.99152 23.1419 7.98981 23.4661 8.18865 23.667C9.82136 25.3167 12.5145 28.0113 12.5416 28.0384C13.381 28.8776 14.7466 28.8776 15.586 28.0384C15.8788 27.7455 16.0695 27.3885 16.158 27.0122L17.9865 28.8382C18.4062 29.2578 18.9575 29.4677 19.5087 29.4677C20.06 29.4677 20.6112 29.2578 21.0309 28.8382C21.3241 28.5449 21.515 28.1874 21.6033 27.8105L21.835 28.0415C22.6596 28.8662 24.0121 28.9005 24.8499 28.1178C25.6535 27.3671 25.7644 26.1376 25.1077 25.2577C25.093 25.238 25.0007 25.1433 25.0007 25.1433C25.2723 25.1222 25.685 24.8951 26.0255 24.5716C26.0469 24.5513 28.1885 22.3968 28.221 22.3573C29.1772 21.1886 29.7373 19.8196 29.8409 18.3984C29.8673 18.0368 30.0195 17.7026 30.2669 17.4597L31.7565 16.0176C31.8903 16.0711 32.0342 16.0997 32.1827 16.0997C32.4893 16.0997 32.7777 15.9802 32.9947 15.7633L34.6633 14.0947C34.8802 13.8777 34.9996 13.5894 34.9996 13.2827C34.9995 12.976 34.8801 12.6877 34.6632 12.4708ZM9.5073 8.43639L2.90431 15.0394C2.87428 15.0694 2.83994 15.0758 2.81646 15.0758C2.79298 15.0758 2.75865 15.0694 2.72861 15.0393L1.05993 13.3706C1.02983 13.3406 1.02348 13.3063 1.02348 13.2828C1.02348 13.2593 1.02983 13.225 1.05993 13.1949L7.66278 6.59194C7.68701 6.56778 7.71889 6.55563 7.7507 6.55563C7.78258 6.55563 7.81439 6.56771 7.83855 6.59194L9.5073 8.26069C9.55576 8.30909 9.55576 8.388 9.5073 8.43639ZM29.5521 16.7266C29.1243 17.1465 28.8642 17.7138 28.8196 18.3239C28.7316 19.5317 28.252 20.7004 27.4342 21.702C27.401 21.7383 27.2431 21.9026 26.5631 22.5901C26.5208 22.4302 26.4582 22.2738 26.3778 22.1236C26.2096 21.8092 25.9599 21.5667 25.7118 21.3168L18.5721 14.119C19.2453 14.0943 19.9594 14.0564 20.4607 13.9721C20.4827 13.9865 20.507 14.0069 20.5182 14.0215C20.7625 14.5403 21.5484 15.6312 22.8064 16.1023C22.8656 16.1244 22.9262 16.135 22.9859 16.135C23.1932 16.135 23.3884 16.0081 23.4654 15.8025C23.5645 15.5377 23.4303 15.2427 23.1655 15.1435C22.2867 14.8144 21.6424 14.0107 21.4428 13.5814C21.2738 13.2185 20.7849 12.87 20.3529 12.9514C18.6592 13.2706 16.8523 13.1665 15.1473 13.129C14.3744 13.1117 13.7305 12.509 13.6813 11.757C13.6558 11.3672 13.8052 10.9682 14.0911 10.6625C14.3673 10.367 14.7385 10.1971 15.1095 10.1963C15.9487 10.1971 16.7878 10.2463 17.499 10.2972C17.8759 10.3241 18.2525 10.3541 18.6291 10.384C18.9401 10.4087 19.2509 10.4334 19.5619 10.4565C19.7003 10.4667 19.8413 10.478 19.9844 10.4894C21.6512 10.6225 23.7174 10.7869 25.2108 9.60384L30.9655 15.3584L29.5521 16.7266Z" fill="#E84923"/>
</g>
<defs>
<clipPath id="clip0_21_7907">
<rect width="35" height="35" fill="white"/>
</clipPath>
</defs>
</svg>
