<svg width="20" height="20" viewBox="0 0 20 20" fill="none" xmlns="http://www.w3.org/2000/svg">
<path fill-rule="evenodd" clip-rule="evenodd" d="M4.43346 3H4.00014V7.7667H4.86675V4.47951L8.46033 8.07314L9.07319 7.46027L5.47961 3.86665H8.76676V3.00003L4.43346 3ZM16.5667 3H17V7.7667H16.1334V4.47951L12.5398 8.07314L11.9269 7.46027L15.5205 3.86665H12.2334V3.00003L16.5667 3ZM17 16H12.2334V15.1334H15.5205L11.9269 11.5398L12.5398 10.9269L16.1333 14.5205V11.2333H17V16ZM4.43332 16H4V11.2333H4.86661V14.5205L8.4602 10.9269L9.07305 11.5397L5.47947 15.1333H8.76662V16H4.43332Z" fill="#7A7A7A"/>
</svg>
