<svg width="19" height="15" viewBox="0 0 19 15" fill="none" xmlns="http://www.w3.org/2000/svg">
<g clip-path="url(#clip0_252_102)">
<path d="M17.6702 6.14728V1.12908C17.6699 0.829675 17.5496 0.542695 17.3354 0.33099C17.1213 0.119457 16.831 0.000335493 16.5282 0H2.47158C2.16874 0.000336053 1.87846 0.119457 1.66432 0.33099C1.45018 0.542691 1.32986 0.829671 1.32952 1.12908V6.14728C0.945097 6.26691 0.60909 6.50432 0.369977 6.82507C0.131029 7.14598 0.00152709 7.5336 0 7.93211V12.0755C0.000339918 12.2751 0.080557 12.4665 0.223311 12.6076C0.366066 12.7486 0.55964 12.8281 0.76136 12.8282H1.22057V14.2473C1.22074 14.4469 1.30113 14.6383 1.44388 14.7794C1.58664 14.9204 1.78004 14.9998 1.98193 15H3.12177C3.32349 14.9998 3.51706 14.9204 3.65981 14.7794C3.80257 14.6383 3.88279 14.4469 3.88313 14.2473V12.8282H15.1166V14.2473C15.1169 14.4469 15.1971 14.6383 15.3399 14.7794C15.4826 14.9204 15.6762 14.9998 15.8779 15H17.0178C17.2197 14.9998 17.4132 14.9204 17.5558 14.7792C17.6986 14.6383 17.779 14.4469 17.7791 14.2473V12.8282H18.2386C18.4405 12.8281 18.6339 12.7486 18.7767 12.6076C18.9194 12.4665 18.9997 12.2751 19 12.0755V7.93211C18.9985 7.53358 18.869 7.14581 18.6299 6.8249C18.3909 6.50416 18.0548 6.26689 17.6702 6.14728ZM2.09091 1.12908C2.09108 0.921244 2.26137 0.75289 2.4716 0.752722H16.5282C16.7384 0.75289 16.9085 0.921244 16.9087 1.12908V6.05051H15.8486C15.8938 5.92987 15.9174 5.80252 15.9188 5.67415V4.56457C15.9184 4.26517 15.7979 3.97819 15.584 3.76649C15.3698 3.55478 15.0796 3.43566 14.7767 3.4355H10.8716C10.5689 3.43566 10.2787 3.55478 10.0645 3.76649C9.85039 3.97819 9.7299 4.26517 9.72956 4.56457V5.67415C9.73092 5.80252 9.75472 5.92987 9.79975 6.05051H9.20001C9.24522 5.92987 9.26884 5.80252 9.2702 5.67415V4.56457C9.26986 4.26517 9.14937 3.97819 8.93523 3.76649C8.72127 3.55478 8.43082 3.43566 8.12814 3.4355H4.22271C3.91987 3.43566 3.62959 3.55478 3.41562 3.76649C3.20148 3.97819 3.08099 4.26517 3.08065 4.56457V5.67415C3.08201 5.80252 3.10563 5.92987 3.15084 6.05051H2.09071L2.09091 1.12908ZM10.4912 5.67415V4.56457C10.4914 4.35674 10.6618 4.18822 10.8719 4.18822H14.777C14.9872 4.18822 15.1575 4.35674 15.1576 4.56457V5.67415C15.1575 5.88182 14.9872 6.05034 14.777 6.05051H10.8719C10.6618 6.05034 10.4914 5.88182 10.4912 5.67415ZM3.84249 5.67415V4.56457C3.84266 4.35674 4.01295 4.18822 4.22318 4.18822H8.12861C8.33883 4.18822 8.50912 4.35674 8.50929 4.56457V5.67415C8.50912 5.88182 8.33883 6.05034 8.12861 6.05051H4.22318C4.01295 6.05034 3.84266 5.88182 3.84249 5.67415ZM3.12276 14.2473H1.98223V12.8282H3.12207L3.12276 14.2473ZM17.0188 14.2473H15.8781V12.8282H17.0179L17.0188 14.2473ZM18.2394 12.0755H0.761433V10.4636H18.2385L18.2394 12.0755ZM0.761433 9.71087V7.93211C0.761773 7.63271 0.882265 7.34573 1.0964 7.13402C1.31037 6.92232 1.60082 6.8032 1.90349 6.80303H17.0965C17.3993 6.8032 17.6896 6.92232 17.9038 7.13402C18.1177 7.34572 18.2382 7.6327 18.2386 7.93211V9.71087H0.761433Z" fill="#7A7A7A"/>
</g>
<defs>
<clipPath id="clip0_252_102">
<rect width="19" height="15" fill="white"/>
</clipPath>
</defs>
</svg>
