<svg width="15" height="15" viewBox="0 0 15 15" fill="none" xmlns="http://www.w3.org/2000/svg">
<g clip-path="url(#clip0_252_110)">
<path fill-rule="evenodd" clip-rule="evenodd" d="M0.500145 0H0.000160627V5.50004H1.0001V1.70713L5.14654 5.85362L5.85368 5.14647L1.70724 0.999979H5.50011V3.21257e-05L0.500145 0ZM14.5 0H15V5.50004H14.0001V1.70713L9.85362 5.85362L9.14648 5.14647L13.2929 0.999979H9.50005V3.21257e-05L14.5 0ZM15 15H9.50002V14.0001H13.2929L9.14644 9.85357L9.85359 9.14641L14 13.2929V9.49999H15V15ZM0.499984 15H0V9.49996H0.999935V13.2929L5.14638 9.14638L5.85352 9.85353L1.70708 14H5.49995V15H0.499984Z" fill="#7A7A7A"/>
</g>
<defs>
<clipPath id="clip0_252_110">
<rect width="15" height="15" fill="white"/>
</clipPath>
</defs>
</svg>
