<svg width="20" height="20" viewBox="0 0 20 20" fill="none" xmlns="http://www.w3.org/2000/svg">
<path d="M17.4089 8.77159H4.3853V3.63184C4.38451 3.37184 4.47845 3.12199 4.64665 2.93625C4.81486 2.75068 5.04376 2.64425 5.28385 2.6401C5.52396 2.63596 5.75591 2.73439 5.9295 2.91396C5.6696 3.3071 5.54678 3.78725 5.58279 4.26912C5.61893 4.75098 5.81167 5.20341 6.12683 5.54597L6.14768 5.56697C6.31391 5.72483 6.56471 5.71597 6.72129 5.54683L8.79572 3.30054C8.95231 3.13111 8.96036 2.85897 8.81392 2.67897L8.79493 2.65683C8.47566 2.31254 8.05322 2.10339 7.60401 2.06696C7.15479 2.03068 6.70834 2.16954 6.34541 2.45853C6.06044 2.15996 5.67825 1.9951 5.28182 2.00011C4.88525 2.00497 4.50662 2.17911 4.22812 2.48468C3.9495 2.79026 3.79356 3.20254 3.7942 3.63182V8.77158H2.59103C2.4343 8.77172 2.28417 8.83929 2.17335 8.95929C2.06254 9.07929 2.00026 9.24186 2 9.41157V10.1428C2.00026 10.3124 2.06253 10.4751 2.17335 10.5951C2.28417 10.7151 2.43431 10.7826 2.59103 10.7828H2.61214V12.9773C2.61266 13.6179 2.77454 14.2458 3.08034 14.7942C3.38615 15.3426 3.82426 15.7901 4.34738 16.0889C4.34712 16.0956 4.34447 16.102 4.34447 16.1087V17.36C4.34473 17.5297 4.40701 17.6923 4.51783 17.8123C4.62864 17.9323 4.77891 17.9997 4.9355 18H5.72455C5.88128 17.9997 6.03141 17.9323 6.14222 17.8123C6.25304 17.6923 6.31531 17.5297 6.31558 17.36V16.4971H13.6447V17.36C13.6449 17.5297 13.7073 17.6923 13.818 17.8123C13.9288 17.9323 14.0791 17.9997 14.2358 18H15.0248C15.1816 17.9997 15.3316 17.9323 15.4424 17.8123C15.5531 17.6923 15.6155 17.5297 15.6157 17.36V16.1087C16.1485 15.814 16.596 15.3652 16.9086 14.8127C17.2213 14.2603 17.3872 13.6251 17.388 12.9771V10.7829H17.4091C17.5659 10.7826 17.716 10.7151 17.8266 10.5951C17.9375 10.4752 17.9999 10.3124 18 10.1429V9.41158C17.9999 9.24187 17.9375 9.0793 17.8266 8.95931C17.716 8.83931 17.5657 8.77173 17.4089 8.77159ZM7.46205 2.69963C7.74649 2.69906 8.02313 2.80034 8.24901 2.98777L6.43264 4.95462C6.23581 4.67605 6.14254 4.32775 6.17116 3.97849C6.19979 3.62921 6.34807 3.30419 6.58712 3.0675C6.82603 2.83064 7.13816 2.69952 7.46205 2.69963ZM4.93564 17.36L4.9396 16.3505C5.19501 16.4316 5.45873 16.4785 5.7247 16.4896V17.3601L4.93564 17.36ZM15.0248 17.36H14.2359V16.4919C14.5028 16.4835 14.7678 16.4395 15.0248 16.3605V17.36ZM16.797 12.9773C16.7962 13.7409 16.5158 14.473 16.0171 15.0129C15.5186 15.5529 14.8425 15.8564 14.1374 15.8573H13.946C13.944 15.8573 13.9423 15.856 13.9403 15.856C13.9384 15.856 13.9367 15.8572 13.9347 15.8573H6.02595C6.02396 15.8573 6.02225 15.856 6.02027 15.856C6.0183 15.856 6.01657 15.8572 6.0146 15.8573H5.86288C5.15773 15.8565 4.48162 15.5529 3.98306 15.0129C3.48436 14.473 3.20391 13.7409 3.20323 12.9773V10.783H16.797V12.9773ZM17.388 10.1429L2.59119 10.143V9.41173H17.4092L17.4095 10.143L17.388 10.1429Z" fill="#7A7A7A"/>
</svg>
