<svg width="17" height="16" viewBox="0 0 17 16" fill="none" xmlns="http://www.w3.org/2000/svg">
<g clip-path="url(#clip0_252_106)">
<path d="M16.372 6.77159H2.53438V1.63184C2.53354 1.37184 2.63335 1.12199 2.81207 0.936247C2.99079 0.750676 3.23399 0.644246 3.48909 0.640102C3.74421 0.635959 3.99065 0.734387 4.17509 0.91396C3.89895 1.3071 3.76845 1.78725 3.80671 2.26912C3.84511 2.75098 4.0499 3.20341 4.38476 3.54597L4.40691 3.56697C4.58353 3.72483 4.85001 3.71597 5.01637 3.54683L7.22045 1.30054C7.38683 1.13111 7.39538 0.858973 7.23979 0.678968L7.21961 0.656825C6.88039 0.312537 6.43155 0.103389 5.95426 0.0669636C5.47696 0.0306777 5.00261 0.169536 4.617 0.458534C4.31422 0.159961 3.90814 -0.00489934 3.48693 0.000110949C3.06558 0.00496801 2.66328 0.17911 2.36738 0.484683C2.07134 0.790256 1.90566 1.20254 1.90634 1.63182V6.77158H0.627967C0.461442 6.77172 0.301926 6.83929 0.184187 6.95929C0.0664469 7.07929 0.000279897 7.24186 0 7.41157V8.14285C0.000280363 8.31242 0.0664434 8.47514 0.184187 8.59513C0.30193 8.71513 0.46145 8.78256 0.627967 8.78284H0.650394V10.9773C0.650955 11.6179 0.822947 12.2458 1.14786 12.7942C1.47278 13.3426 1.93828 13.7901 2.49409 14.0889C2.49381 14.0956 2.491 14.102 2.491 14.1087V15.36C2.49128 15.5297 2.55745 15.6923 2.67519 15.8123C2.79293 15.9323 2.95259 15.9997 3.11897 16H3.95733C4.12386 15.9997 4.28337 15.9323 4.40111 15.8123C4.51885 15.6923 4.58502 15.5297 4.5853 15.36V14.4971H12.3725V15.36C12.3727 15.5297 12.439 15.6923 12.5566 15.8123C12.6743 15.9323 12.834 15.9997 13.0005 16H13.8389C14.0054 15.9997 14.1648 15.9323 14.2825 15.8123C14.4002 15.6923 14.4665 15.5297 14.4667 15.36V14.1087C15.0328 13.814 15.5082 13.3652 15.8404 12.8127C16.1726 12.2603 16.3489 11.6251 16.3497 10.9771V8.78286H16.3722C16.5388 8.78258 16.6982 8.71515 16.8158 8.59515C16.9336 8.47515 16.9999 8.31243 17 8.14287V7.41158C16.9999 7.24187 16.9336 7.0793 16.8158 6.95931C16.6982 6.83931 16.5386 6.77173 16.372 6.77159ZM5.80343 0.699629C6.10565 0.699058 6.39958 0.800344 6.63957 0.987773L4.70968 2.95462C4.50055 2.67605 4.40145 2.32775 4.43186 1.97849C4.46228 1.62921 4.61983 1.30419 4.87381 1.0675C5.12766 0.83064 5.4593 0.699519 5.80343 0.699629ZM3.11912 15.36L3.12332 14.3505C3.3947 14.4316 3.6749 14.4785 3.95749 14.4896V15.3601L3.11912 15.36ZM13.8388 15.36H13.0006V14.4919C13.2842 14.4835 13.5658 14.4395 13.8388 14.3605V15.36ZM15.7218 10.9773C15.721 11.7409 15.423 12.473 14.8932 13.0129C14.3635 13.5529 13.6452 13.8564 12.896 13.8573H12.6926C12.6905 13.8573 12.6887 13.856 12.6866 13.856C12.6845 13.856 12.6827 13.8572 12.6806 13.8573H4.27757C4.27546 13.8573 4.27364 13.856 4.27154 13.856C4.26944 13.856 4.26761 13.8572 4.26551 13.8573H4.10431C3.35509 13.8565 2.63672 13.5529 2.107 13.0129C1.57713 12.473 1.27915 11.7409 1.27843 10.9773V8.78302H15.7218V10.9773ZM16.3497 8.14288L0.628144 8.14302V7.41173H16.3723L16.3726 8.14302L16.3497 8.14288Z" fill="#7A7A7A"/>
</g>
<defs>
<clipPath id="clip0_252_106">
<rect width="17" height="16" fill="white"/>
</clipPath>
</defs>
</svg>
