<svg width="20" height="20" viewBox="0 0 20 20" fill="none" xmlns="http://www.w3.org/2000/svg">
<path d="M18.6002 8.73746V4.05381C18.5999 3.77436 18.4733 3.50652 18.2478 3.30892C18.0224 3.11149 17.7168 3.00031 17.3981 3H2.60166C2.28288 3.00031 1.97733 3.11149 1.75192 3.30892C1.52651 3.50651 1.39985 3.77436 1.39949 4.05381V8.73746C0.994839 8.84912 0.641147 9.0707 0.389449 9.37007C0.137925 9.66958 0.00160746 10.0314 0 10.4033V14.2705C0.000357808 14.4568 0.0847968 14.6354 0.235064 14.7671C0.385333 14.8987 0.589095 14.9729 0.801432 14.973H1.28481V16.2975C1.28499 16.4838 1.36961 16.6624 1.51987 16.7941C1.67015 16.9257 1.87373 16.9998 2.08624 17H3.28607C3.49841 16.9998 3.70217 16.9257 3.85243 16.7941C4.00271 16.6624 4.08715 16.4838 4.08751 16.2975V14.973H15.9122V16.2975C15.9125 16.4838 15.9969 16.6624 16.1473 16.7941C16.2975 16.9257 16.5013 16.9998 16.7136 17H17.9135C18.126 16.9998 18.3297 16.9257 18.4798 16.7939C18.6301 16.6624 18.7147 16.4838 18.7148 16.2975V14.973H19.1985C19.4111 14.9729 19.6146 14.8987 19.7649 14.7671C19.9152 14.6354 19.9997 14.4568 20 14.2705V10.4033C19.9984 10.0313 19.8621 9.66942 19.6104 9.36991C19.3588 9.07055 19.0051 8.8491 18.6002 8.73746ZM2.20096 4.05381C2.20114 3.85983 2.38039 3.7027 2.60168 3.70254H17.3981C17.6194 3.7027 17.7984 3.85983 17.7986 4.05381V8.64714H16.6827C16.7303 8.53455 16.7552 8.41569 16.7566 8.29587V7.26027C16.7562 6.98083 16.6294 6.71298 16.4042 6.51539C16.1787 6.31779 15.8733 6.20662 15.5544 6.20647H11.4438C11.1252 6.20662 10.8197 6.31779 10.5942 6.51539C10.3688 6.71298 10.242 6.98083 10.2416 7.26027V8.29587C10.2431 8.41569 10.2681 8.53455 10.3155 8.64714H9.68422C9.73181 8.53455 9.75667 8.41569 9.75811 8.29587V7.26027C9.75775 6.98083 9.63092 6.71298 9.40551 6.51539C9.18028 6.31779 8.87455 6.20662 8.55594 6.20647H4.44496C4.12618 6.20662 3.82062 6.31779 3.59539 6.51539C3.36998 6.71298 3.24315 6.98083 3.24279 7.26027V8.29587C3.24422 8.41569 3.26908 8.53455 3.31667 8.64714H2.20075L2.20096 4.05381ZM11.0434 8.29587V7.26027C11.0436 7.06629 11.2229 6.90901 11.4441 6.90901H15.5547C15.776 6.90901 15.9553 7.06629 15.9554 7.26027V8.29587C15.9553 8.4897 15.776 8.64698 15.5547 8.64714H11.4441C11.2229 8.64698 11.0436 8.4897 11.0434 8.29587ZM4.04473 8.29587V7.26027C4.04491 7.06629 4.22416 6.90901 4.44545 6.90901H8.55643C8.77772 6.90901 8.95697 7.06629 8.95715 7.26027V8.29587C8.95697 8.4897 8.77772 8.64698 8.55643 8.64714H4.44545C4.22416 8.64698 4.04491 8.4897 4.04473 8.29587ZM3.28712 16.2975H2.08656V14.973H3.28639L3.28712 16.2975ZM17.9145 16.2975H16.7138V14.973H17.9136L17.9145 16.2975ZM19.1994 14.2705H0.801508V12.766H19.1984L19.1994 14.2705ZM0.801508 12.0635V10.4033C0.801866 10.1239 0.9287 9.85601 1.15411 9.65842C1.37934 9.46083 1.68507 9.34965 2.00367 9.34949H17.9963C18.3151 9.34965 18.6206 9.46083 18.8461 9.65842C19.0713 9.85601 19.1981 10.1239 19.1985 10.4033V12.0635H0.801508Z" fill="#7A7A7A"/>
</svg>
