<svg width="46" height="46" viewBox="0 0 46 46" fill="none" xmlns="http://www.w3.org/2000/svg">
<path d="M27.2293 12.4097H17.8746C14.8561 12.4097 12.4097 14.8565 12.4097 17.875V27.2288C12.4097 30.2473 14.8565 32.6942 17.875 32.6942H27.2288C30.2473 32.6942 32.6942 30.2473 32.6942 27.2288V17.875C32.6942 14.8565 30.2477 12.4097 27.2293 12.4097Z" fill="white"/>
<path d="M27.2293 12.4097H17.8746C14.8561 12.4097 12.4097 14.8565 12.4097 17.875V27.2288C12.4097 30.2473 14.8565 32.6942 17.875 32.6942H27.2288C30.2473 32.6942 32.6942 30.2473 32.6942 27.2288V17.875C32.6942 14.8565 30.2477 12.4097 27.2293 12.4097Z" stroke="#E84923" stroke-width="0.75" stroke-miterlimit="10"/>
<path d="M22.5516 27.4482C25.2558 27.4482 27.448 25.256 27.448 22.5518C27.448 19.8476 25.2558 17.6555 22.5516 17.6555C19.8474 17.6555 17.6553 19.8476 17.6553 22.5518C17.6553 25.256 19.8474 27.4482 22.5516 27.4482Z" stroke="#E84923" stroke-width="0.75" stroke-miterlimit="10"/>
<path d="M28.4971 15.7448C28.9728 15.7448 29.3592 16.1304 29.3594 16.6061C29.3594 17.082 28.9729 17.4684 28.4971 17.4684C28.0213 17.4683 27.6357 17.0819 27.6357 16.6061C27.6359 16.1305 28.0214 15.745 28.4971 15.7448Z" fill="white" stroke="#E84923" stroke-width="0.375"/>
<circle cx="22.5518" cy="22.5518" r="22.2268" stroke="#F6F6F6" stroke-width="0.65"/>
<circle cx="22.5518" cy="22.5519" r="22.2268" stroke="#F6F6F6" stroke-width="0.65"/>
</svg>
