<svg width="41" height="41" viewBox="0 0 41 41" fill="none" xmlns="http://www.w3.org/2000/svg">
<rect width="41" height="41" rx="4" fill="transparent"/>
<path d="M21 16.505C19.065 16.505 17.505 18.08 17.505 20C17.505 21.92 19.08 23.495 21 23.495C22.92 23.495 24.495 21.92 24.495 20C24.495 18.08 22.92 16.505 21 16.505ZM31.5 20C31.5 18.545 31.5 17.12 31.425 15.665C31.35 13.985 30.96 12.485 29.73 11.27C28.5 10.04 27.015 9.65 25.335 9.575C23.88 9.5 22.455 9.5 21 9.5C19.545 9.5 18.12 9.5 16.665 9.575C14.985 9.65 13.485 10.04 12.27 11.27C11.04 12.5 10.65 13.985 10.575 15.665C10.5 17.12 10.5 18.545 10.5 20C10.5 21.455 10.5 22.88 10.575 24.335C10.65 26.015 11.04 27.515 12.27 28.73C13.5 29.96 14.985 30.35 16.665 30.425C18.12 30.5 19.545 30.5 21 30.5C22.455 30.5 23.88 30.5 25.335 30.425C27.015 30.35 28.515 29.96 29.73 28.73C30.96 27.5 31.35 26.015 31.425 24.335C31.515 22.895 31.5 21.455 31.5 20ZM21 25.385C18.015 25.385 15.615 22.985 15.615 20C15.615 17.015 18.015 14.615 21 14.615C23.985 14.615 26.385 17.015 26.385 20C26.385 22.985 23.985 25.385 21 25.385ZM26.61 15.65C25.92 15.65 25.35 15.095 25.35 14.39C25.35 13.685 25.905 13.13 26.61 13.13C27.315 13.13 27.87 13.685 27.87 14.39C27.8738 14.5543 27.8438 14.7176 27.7819 14.8699C27.7199 15.0221 27.6274 15.16 27.51 15.275C27.395 15.3924 27.2571 15.4849 27.1049 15.5469C26.9526 15.6088 26.7893 15.6388 26.625 15.635L26.61 15.65Z" fill="white"/>
</svg>
