<svg width="20" height="20" viewBox="0 0 20 20" fill="none" xmlns="http://www.w3.org/2000/svg">
<path d="M16.2498 18.3333C16.5814 18.3333 16.8993 18.2016 17.1337 17.9672C17.3681 17.7328 17.4998 17.4149 17.4998 17.0833V14.1667C17.4998 13.8351 17.3681 13.5172 17.1337 13.2828C16.8993 13.0484 16.5814 12.9167 16.2498 12.9167C15.2748 12.9167 14.3165 12.7667 13.3998 12.4583C13.1807 12.3892 12.9468 12.3813 12.7235 12.4357C12.5002 12.49 12.296 12.6045 12.1332 12.7667L10.9332 13.9667C8.86004 12.8353 7.15616 11.1315 6.02484 9.05833L7.2165 7.86667C7.55817 7.54167 7.68317 7.05833 7.53317 6.59167C7.23317 5.68333 7.08317 4.725 7.08317 3.75C7.08317 3.41848 6.95147 3.10054 6.71705 2.86612C6.48263 2.6317 6.16469 2.5 5.83317 2.5H2.9165C2.58498 2.5 2.26704 2.6317 2.03262 2.86612C1.7982 3.10054 1.6665 3.41848 1.6665 3.75C1.6665 11.7917 8.20817 18.3333 16.2498 18.3333ZM2.9165 3.33333H5.83317C5.94368 3.33333 6.04966 3.37723 6.1278 3.45537C6.20594 3.53351 6.24984 3.63949 6.24984 3.75C6.24984 4.81667 6.4165 5.85833 6.7415 6.85C6.78317 6.96667 6.77484 7.13333 6.6415 7.26667L4.99984 8.9C6.37484 11.5917 8.3915 13.6083 11.0915 15L12.7165 13.3583C12.8332 13.2417 12.9915 13.2083 13.1415 13.25C14.1415 13.5833 15.1832 13.75 16.2498 13.75C16.3603 13.75 16.4663 13.7939 16.5445 13.872C16.6226 13.9502 16.6665 14.0562 16.6665 14.1667V17.0833C16.6665 17.1938 16.6226 17.2998 16.5445 17.378C16.4663 17.4561 16.3603 17.5 16.2498 17.5C8.6665 17.5 2.49984 11.3333 2.49984 3.75C2.49984 3.63949 2.54374 3.53351 2.62188 3.45537C2.70002 3.37723 2.806 3.33333 2.9165 3.33333Z" fill="white"/>
</svg>
