<svg width="19" height="19" viewBox="0 0 19 19" fill="none" xmlns="http://www.w3.org/2000/svg">
<path d="M12.6668 7.91667C12.6668 6.16708 11.2497 4.75 9.50016 4.75C7.75058 4.75 6.3335 6.16708 6.3335 7.91667C6.3335 9.66625 7.75058 11.0833 9.50016 11.0833C11.2497 11.0833 12.6668 9.66625 12.6668 7.91667ZM7.91683 7.91667C7.91683 7.04583 8.62933 6.33333 9.50016 6.33333C10.371 6.33333 11.0835 7.04583 11.0835 7.91667C11.0835 8.7875 10.371 9.5 9.50016 9.5C8.62933 9.5 7.91683 8.7875 7.91683 7.91667Z" fill="white"/>
<path d="M9.04074 17.2664C9.17533 17.3614 9.34158 17.4168 9.49991 17.4168C9.65825 17.4168 9.82449 17.3693 9.95908 17.2664C10.1966 17.0922 15.857 13.0151 15.8332 7.9089C15.8332 4.41764 12.9912 1.57556 9.49991 1.57556C6.00866 1.57556 3.16658 4.41764 3.16658 7.9089C3.14283 13.0072 8.80324 17.0922 9.04074 17.2664ZM9.49991 3.16681C12.1203 3.16681 14.2499 5.2964 14.2499 7.91681C14.2657 11.4318 10.7745 14.5906 9.49991 15.6276C8.22533 14.5906 4.73408 11.4397 4.74991 7.91681C4.74991 5.2964 6.8795 3.16681 9.49991 3.16681Z" fill="white"/>
</svg>
