<svg width="35" height="35" viewBox="0 0 35 35" fill="none" xmlns="http://www.w3.org/2000/svg">
<path d="M29.2223 5.77783C27.5516 4.10544 25.3606 3.05271 23.0109 2.79342C20.6613 2.53414 18.2935 3.08378 16.2983 4.35164C14.3032 5.61949 12.8 7.52976 12.0369 9.76711C11.2738 12.0045 11.2964 14.4351 12.101 16.6579L4.30801 24.4509C4.1556 24.6027 4.03474 24.7832 3.95238 24.9819C3.87002 25.1807 3.82779 25.3938 3.82813 25.6089V29.5313C3.82813 29.9665 4.00098 30.3838 4.30865 30.6914C4.61633 30.9991 5.03363 31.172 5.46875 31.172H9.84375C9.98879 31.172 10.1279 31.1144 10.2305 31.0118C10.333 30.9092 10.3906 30.7701 10.3906 30.6251V27.8907H13.125C13.27 27.8907 13.4091 27.8331 13.5117 27.7305C13.6143 27.628 13.6719 27.4889 13.6719 27.3438V24.6095H16.4063C16.4781 24.6095 16.5492 24.5954 16.6156 24.568C16.682 24.5405 16.7423 24.5003 16.7932 24.4495L18.3422 22.8991C19.4749 23.3087 20.6705 23.5173 21.875 23.5157H21.8887C23.9426 23.513 25.9496 22.9017 27.6562 21.7589C29.3629 20.6161 30.6925 18.9932 31.4773 17.0951C32.262 15.197 32.4666 13.1089 32.0653 11.0946C31.6639 9.08033 30.6746 7.23016 29.2223 5.77783ZM31.1664 13.4341C31.0092 18.386 26.8461 22.4192 21.8873 22.4261H21.875C20.6944 22.4284 19.5244 22.2043 18.4283 21.7657C18.3273 21.721 18.2151 21.7079 18.1065 21.7281C17.9979 21.7484 17.898 21.801 17.8199 21.8792L16.1793 23.5198H13.125C12.98 23.5198 12.8409 23.5774 12.7383 23.68C12.6357 23.7826 12.5781 23.9217 12.5781 24.0667V26.8011H9.84375C9.69871 26.8011 9.55961 26.8587 9.45705 26.9612C9.35449 27.0638 9.29688 27.2029 9.29688 27.3479V30.0823H5.46875C5.32371 30.0823 5.18461 30.0247 5.08205 29.9221C4.97949 29.8196 4.92188 29.6805 4.92188 29.5354V25.6089C4.92265 25.464 4.98006 25.3251 5.08184 25.222L13.125 17.1802C13.2032 17.1021 13.2558 17.0022 13.2761 16.8936C13.2963 16.785 13.2832 16.6728 13.2385 16.5718C12.7984 15.4719 12.5742 14.2975 12.5781 13.1128C12.5781 8.154 16.6182 3.99091 21.5701 3.82822C22.8425 3.78576 24.11 4.00508 25.2942 4.47259C26.4783 4.9401 27.5538 5.64583 28.4541 6.54604C29.3543 7.44625 30.06 8.52176 30.5275 9.7059C30.995 10.89 31.2143 12.1576 31.1719 13.43L31.1664 13.4341ZM25.7031 10.3907C25.7031 10.607 25.639 10.8185 25.5188 10.9984C25.3986 11.1782 25.2278 11.3184 25.0279 11.4012C24.8281 11.484 24.6082 11.5057 24.396 11.4635C24.1838 11.4212 23.9889 11.3171 23.836 11.1641C23.683 11.0112 23.5788 10.8163 23.5366 10.6041C23.4944 10.3919 23.5161 10.172 23.5989 9.97216C23.6817 9.7723 23.8219 9.60148 24.0017 9.4813C24.1816 9.36111 24.3931 9.29697 24.6094 9.29697C24.8995 9.29697 25.1777 9.4122 25.3828 9.61732C25.5879 9.82244 25.7031 10.1006 25.7031 10.3907Z" fill="#E84923"/>
</svg>
