<svg width="24" height="24" viewBox="0 0 24 24" fill="none" xmlns="http://www.w3.org/2000/svg">
<path d="M7.21778 10.9244C8.49778 13.44 10.56 15.4933 13.0756 16.7822L15.0311 14.8267C15.2711 14.5867 15.6267 14.5067 15.9378 14.6133C16.9333 14.9422 18.0089 15.12 19.1111 15.12C19.6 15.12 20 15.52 20 16.0089V19.1111C20 19.6 19.6 20 19.1111 20C10.7644 20 4 13.2356 4 4.88889C4 4.4 4.4 4 4.88889 4H8C8.48889 4 8.88889 4.4 8.88889 4.88889C8.88889 6 9.06667 7.06667 9.39556 8.06222C9.49333 8.37333 9.42222 8.72 9.17333 8.96889L7.21778 10.9244Z" fill="#E84923"/>
</svg>
