<svg width="24" height="24" viewBox="0 0 24 24" fill="none" xmlns="http://www.w3.org/2000/svg">
<g clip-path="url(#clip0_132_5298)">
<path d="M7.11729 3.4436H16.8683C17.0614 3.4436 17.2367 3.5221 17.3633 3.64902L19.7353 6.02105C19.8722 6.15759 19.9405 6.33684 19.9405 6.51639L19.9408 9.96812C20.0644 9.99759 20.1817 10.0601 20.2776 10.1567L21.4247 11.3044C21.5738 11.4325 21.6683 11.6229 21.6683 11.8352V13.3558H22.6923C22.8857 13.3558 23.0611 13.4343 23.1877 13.5612L23.7808 14.154C23.9173 14.2905 23.9856 14.4701 23.9856 14.6493L23.9859 16.8589C23.9859 17.2454 23.6722 17.5594 23.2854 17.5594H21.591V19.8502C21.591 20.237 21.2773 20.5507 20.8905 20.5507H18.791C18.4042 20.5507 18.0905 20.237 18.0905 19.8502V17.5594H5.89534V19.8502C5.89534 20.237 5.58165 20.5507 5.19489 20.5507H3.09534C2.70857 20.5507 2.39489 20.237 2.39489 19.8502V17.5594H0.700451C0.313684 17.5594 0 17.2454 0 16.8589V14.6493C0 14.4559 0.0784962 14.2809 0.205113 14.154L0.798196 13.5612C0.934737 13.4247 1.11398 13.3564 1.29353 13.3558H2.31699V11.8352C2.31759 11.6559 2.38586 11.4767 2.52241 11.3398L3.70857 10.1537C3.7997 10.0626 3.91519 9.99669 4.04481 9.96661V6.51639C4.04481 6.323 4.12331 6.14766 4.24992 6.02105L6.62226 3.64902C6.7588 3.51217 6.93805 3.4439 7.11729 3.4436ZM1.58346 14.7567L1.4009 14.9392V16.1585C8.46226 16.1585 15.5236 16.1585 22.585 16.1585V14.9392L22.4024 14.7567C15.4626 14.7567 8.52331 14.7567 1.58346 14.7567ZM7.90947 7.03879H16.0755C16.4623 7.03879 16.7759 7.35248 16.7759 7.73924V9.94857H18.5399V6.80631L16.578 4.84451H7.40752L5.44571 6.80631V9.94857H7.20902V7.73924C7.20902 7.35248 7.52301 7.03879 7.90947 7.03879ZM15.375 8.43969H8.60993V9.94857H15.375V8.43969ZM4.49444 17.5594H3.79579V19.1498H4.49444V17.5594ZM20.1901 17.5594H19.4914V19.1498H20.1901V17.5594ZM19.2403 11.3495C14.4084 11.3495 9.57714 11.3495 4.74526 11.3495H4.49383L3.71789 12.1251V13.3558H20.2674V12.1224L19.4953 11.3495H19.2403Z" fill="#222222"/>
</g>
<defs>
<clipPath id="clip0_132_5298">
<rect width="24" height="24" fill="white"/>
</clipPath>
</defs>
</svg>
