<svg width="17" height="17" viewBox="0 0 17 17" fill="none" xmlns="http://www.w3.org/2000/svg">
<path d="M15.677 16.385L9.415 10.123C8.915 10.549 8.34 10.8787 7.69 11.112C7.04 11.3453 6.38667 11.462 5.73 11.462C4.13133 11.462 2.77667 10.9067 1.666 9.796C0.555333 8.68467 0 7.32967 0 5.731C0 4.13233 0.555333 2.77767 1.666 1.667C2.77667 0.556334 4.13133 0.000667266 5.73 5.99161e-07C7.32867 -0.000666067 8.68367 0.555 9.795 1.667C10.9063 2.779 11.4617 4.13367 11.461 5.731C11.461 6.42567 11.338 7.098 11.092 7.748C10.846 8.398 10.5227 8.954 10.122 9.416L16.384 15.677L15.677 16.385ZM5.731 10.461C7.05767 10.461 8.17767 10.0043 9.091 9.091C10.0043 8.17767 10.461 7.05733 10.461 5.73C10.461 4.40267 10.0043 3.28267 9.091 2.37C8.17767 1.45733 7.05767 1.00067 5.731 1C4.40433 0.999334 3.284 1.456 2.37 2.37C1.456 3.284 0.999333 4.404 1 5.73C1.00067 7.056 1.45733 8.176 2.37 9.09C3.28267 10.004 4.40267 10.4607 5.73 10.46" fill="black"/>
</svg>
