<svg width="32" height="32" viewBox="0 0 32 32" fill="none" xmlns="http://www.w3.org/2000/svg">
<path d="M17.96 10.0399C18.1475 10.2272 18.4017 10.3324 18.6667 10.3324C18.9317 10.3324 19.1859 10.2272 19.3734 10.0399L20.3334 9.07993V22.6666C20.3334 22.9318 20.4387 23.1862 20.6263 23.3737C20.8138 23.5612 21.0682 23.6666 21.3334 23.6666C21.5986 23.6666 21.8529 23.5612 22.0405 23.3737C22.228 23.1862 22.3334 22.9318 22.3334 22.6666V9.07993L23.2934 10.0399C23.3849 10.1382 23.4953 10.217 23.618 10.2716C23.7407 10.3263 23.8731 10.3557 24.0073 10.3581C24.1416 10.3604 24.275 10.3357 24.3995 10.2854C24.524 10.2351 24.6371 10.1603 24.7321 10.0653C24.827 9.97036 24.9019 9.85725 24.9522 9.73273C25.0025 9.60821 25.0272 9.47484 25.0248 9.34057C25.0225 9.2063 24.9931 9.07388 24.9384 8.95122C24.8838 8.82855 24.805 8.71815 24.7067 8.6266L22.04 5.95993C21.8525 5.77267 21.5984 5.66748 21.3334 5.66748C21.0684 5.66748 20.8142 5.77267 20.6267 5.95993L17.96 8.6266C17.7728 8.8141 17.6676 9.06827 17.6676 9.33327C17.6676 9.59827 17.7728 9.85243 17.96 10.0399ZM11.6667 22.9199L12.6267 21.9599C12.7183 21.8617 12.8287 21.7829 12.9513 21.7282C13.074 21.6736 13.2064 21.6442 13.3407 21.6418C13.4749 21.6394 13.6083 21.6641 13.7328 21.7144C13.8574 21.7647 13.9705 21.8396 14.0654 21.9346C14.1604 22.0295 14.2352 22.1426 14.2855 22.2671C14.3358 22.3917 14.3605 22.525 14.3582 22.6593C14.3558 22.7936 14.3264 22.926 14.2717 23.0487C14.2171 23.1713 14.1383 23.2817 14.04 23.3733L11.3734 26.0399C11.1859 26.2272 10.9317 26.3324 10.6667 26.3324C10.4017 26.3324 10.1475 26.2272 9.96004 26.0399L7.29337 23.3733C7.19513 23.2817 7.11632 23.1713 7.06167 23.0487C7.00701 22.926 6.97762 22.7936 6.97525 22.6593C6.97288 22.525 6.99758 22.3917 7.04788 22.2671C7.09817 22.1426 7.17303 22.0295 7.26799 21.9346C7.36295 21.8396 7.47606 21.7647 7.60058 21.7144C7.7251 21.6641 7.85847 21.6394 7.99274 21.6418C8.12701 21.6442 8.25943 21.6736 8.38209 21.7282C8.50476 21.7829 8.61516 21.8617 8.70671 21.9599L9.66671 22.9199V9.33327C9.66671 9.06805 9.77207 8.8137 9.9596 8.62616C10.1471 8.43862 10.4015 8.33327 10.6667 8.33327C10.9319 8.33327 11.1863 8.43862 11.3738 8.62616C11.5614 8.8137 11.6667 9.06805 11.6667 9.33327V22.9199Z" fill="#E84923"/>
</svg>
