<svg width="41" height="41" viewBox="0 0 41 41" fill="none" xmlns="http://www.w3.org/2000/svg">
<rect width="41" height="41" rx="4" fill="transparent"/>
<path d="M28.9999 13L13.6719 19.373C13.2769 19.537 13.0799 19.62 13.0289 19.727C13.0068 19.7727 12.9967 19.8233 12.9995 19.8741C13.0023 19.9248 13.0179 19.974 13.0449 20.017C13.1079 20.117 13.3129 20.177 13.7249 20.298L19.4999 22M28.9999 13L26.9349 26.049C26.8949 26.303 26.8749 26.43 26.8079 26.499C26.7796 26.5298 26.7451 26.5544 26.7067 26.5711C26.6683 26.5878 26.6268 26.5963 26.5849 26.596C26.4879 26.596 26.3799 26.524 26.1639 26.38L23.2339 24.424M28.9999 13L19.4999 22M19.4999 22L19.6559 26.3C19.6559 26.634 19.6559 26.801 19.7249 26.885C19.7849 26.959 19.8749 27.001 19.9709 27C20.0809 26.999 20.2109 26.892 20.4709 26.68L23.2339 24.424M19.4999 22L23.2339 24.424" stroke="white" stroke-width="1.5" stroke-linecap="round" stroke-linejoin="round"/>
</svg>
