<svg width="285" height="247" viewBox="0 0 285 247" fill="none" xmlns="http://www.w3.org/2000/svg">
<path d="M87.975 171.186L129.198 223.577L122.014 229.23L81.7431 178.05L75.7512 246.351L66.6419 245.592L72.182 175.388L15.7317 219.806L10.0788 212.621L66.061 168.572L-6.84963e-05 160.691L0.541253 156.153L1.08197 151.615L67.1438 159.495L25.9207 107.105L33.105 101.452L74.6535 154.256L84.7278 39.4039L93.8331 40.2021L83.7979 154.616L268.79 9.05633L260.116 8.02162L260.595 4.01043L261.074 1.87129e-05L280.851 2.35855L284.862 2.83706L282.024 26.6258L274.002 25.6688L275.197 15.647L89.0579 162.11L206.466 176.115L205.923 180.654L205.382 185.192L87.975 171.186ZM275.882 9.90242L275.042 9.80214L275.782 10.7431L275.882 9.90242Z" fill="#E84923" fill-opacity="0.08"/>
</svg>
