<svg width="300" height="227" viewBox="0 0 300 227" fill="none" xmlns="http://www.w3.org/2000/svg">
<path d="M222.295 137.893L258.827 82.1301L266.474 87.1396L230.786 141.615L297.438 125.54L299.62 134.416L231.308 151.526L291.393 190.888L286.383 198.535L226.797 159.499L240.368 224.629L235.894 225.562L231.42 226.495L217.848 161.363L181.317 217.127L173.67 212.117L210.49 155.914L98.4105 182.946L96.267 174.061L207.918 147.131L11.0127 18.1343L12.796 26.6927L8.84131 27.5167L4.88717 28.34L0.823583 8.84183L-0.00046544 4.88715L23.4532 4.76376e-05L25.1013 7.90941L15.2274 9.96685L213.346 139.758L189.226 24.0042L193.701 23.0725L198.175 22.1403L222.295 137.893ZM9.55699 11.1484L9.72969 11.9772L10.3858 10.9757L9.55699 11.1484Z" fill="#E84923" fill-opacity="0.08"/>
</svg>
