<svg width="75" height="41" viewBox="0 0 75 41" fill="none" xmlns="http://www.w3.org/2000/svg">
<path d="M56.1064 18.123V3.67285H58.0879V17.7891L68.2637 6.95703L69.7139 8.30762L59.3594 19.5244H74.9307V21.5059H59.4893L69.6865 31.7031L68.9863 32.4043L68.2852 33.1045L58.0879 22.9072V37.3574H56.1064V22.793L38.9951 41.0078L38.2734 40.3301L37.5508 39.6514L54.5977 21.5059H3.57129L4.91016 22.8447L3.67188 24.083L0 20.4111L3.67188 16.7393L4.91016 17.9775L3.36328 19.5244H54.7051L36.582 1.40039L37.2822 0.700195L37.9834 0L56.1064 18.123ZM2.47656 20.4111L2.60645 20.541V20.2812L2.47656 20.4111Z" fill="#E84923"/>
</svg>
