<svg width="20" height="20" viewBox="0 0 20 20" fill="none" xmlns="http://www.w3.org/2000/svg">
<path fill-rule="evenodd" clip-rule="evenodd" d="M3.49984 4.33331L9.79984 9.05831C9.85754 9.10159 9.92771 9.12498 9.99984 9.12498C10.072 9.12498 10.1421 9.10159 10.1998 9.05831L16.4998 4.33331H3.49984ZM17.3332 4.95831L10.7998 9.85831C10.569 10.0314 10.2883 10.125 9.99984 10.125C9.71134 10.125 9.43063 10.0314 9.19984 9.85831L2.6665 4.95831V15.6666H17.3332V4.95831ZM2.49984 3.33331H17.4998C17.7208 3.33331 17.9328 3.42111 18.0891 3.57739C18.2454 3.73367 18.3332 3.94563 18.3332 4.16665V15.8333C18.3332 16.0543 18.2454 16.2663 18.0891 16.4226C17.9328 16.5788 17.7208 16.6666 17.4998 16.6666H2.49984C2.27882 16.6666 2.06686 16.5788 1.91058 16.4226C1.7543 16.2663 1.6665 16.0543 1.6665 15.8333V4.16665C1.6665 3.94563 1.7543 3.73367 1.91058 3.57739C2.06686 3.42111 2.27882 3.33331 2.49984 3.33331Z" fill="white"/>
</svg>
