<svg width="128" height="43" viewBox="0 0 128 43" fill="none" xmlns="http://www.w3.org/2000/svg">
<path d="M31.5791 0.900513C35.9111 0.900552 39.791 2.0196 42.5596 3.78137C45.3388 5.55 46.8906 7.88326 46.8906 10.3175C46.8905 12.7516 45.3387 15.0841 42.5596 16.8527C39.791 18.6145 35.9112 19.7335 31.5791 19.7335C27.247 19.7335 23.3672 18.6144 20.5986 16.8527C17.8194 15.0841 16.2667 12.7517 16.2666 10.3175C16.2666 7.88326 17.8194 5.55 20.5986 3.78137C23.3672 2.01969 27.2472 0.900513 31.5791 0.900513Z" fill="#E84923" stroke="#E84923" stroke-width="1.80141"/>
<path d="M14.1349 17.8902C13.8404 18.0865 13.4396 18.3074 12.9325 18.5528C12.4253 18.7982 11.8282 19.0027 11.1411 19.1663C10.4703 19.3299 9.73411 19.4117 8.93247 19.4117C7.55825 19.3953 6.3149 19.1499 5.20243 18.6755C4.10632 18.2011 3.17381 17.5549 2.4049 16.7369C1.63598 15.9189 1.03885 14.9782 0.613494 13.9148C0.204498 12.835 0 11.6899 0 10.4792C0 9.15408 0.212678 7.93527 0.638034 6.8228C1.07975 5.69397 1.69324 4.72056 2.47852 3.90257C3.26379 3.06822 4.18812 2.422 5.25151 1.96393C6.33126 1.50585 7.50917 1.27681 8.78523 1.27681C9.84862 1.27681 10.8139 1.42405 11.6809 1.71853C12.548 1.99665 13.2924 2.33202 13.914 2.72466L12.957 4.93324C12.4662 4.60604 11.8691 4.2952 11.1656 4.00073C10.4785 3.70625 9.70957 3.55901 8.85885 3.55901C7.99178 3.55901 7.17379 3.73079 6.40488 4.07435C5.63596 4.4179 4.95703 4.90052 4.36808 5.52219C3.77912 6.14387 3.31287 6.87188 2.96931 7.70623C2.64211 8.52422 2.47852 9.40765 2.47852 10.3565C2.47852 11.3218 2.62575 12.2215 2.92023 13.0559C3.23107 13.8739 3.6646 14.5855 4.22084 15.1909C4.79343 15.7962 5.48055 16.2706 6.28218 16.6142C7.08381 16.9577 7.9836 17.1295 8.98155 17.1295C9.88134 17.1295 10.683 16.9904 11.3864 16.7123C12.0899 16.4342 12.6707 16.1234 13.1288 15.7798L14.1349 17.8902Z" fill="#222222"/>
<path d="M50.593 19.2154V0.908716H50.6175L59.9181 14.1111L58.9119 13.9148L68.188 0.908716H68.237V19.2154H65.8812V6.30746L66.0285 7.50991L59.3291 16.9823H59.28L52.4825 7.50991L52.8997 6.40562V19.2154H50.593Z" fill="#222222"/>
<path d="M78.0715 1.47313C79.364 1.47313 80.4683 1.69399 81.3844 2.1357C82.3006 2.56106 83.004 3.18273 83.4948 4.00073C84.002 4.81872 84.2556 5.80849 84.2556 6.97004C84.2556 7.67351 84.1492 8.3688 83.9366 9.05592C83.7239 9.72667 83.3803 10.3402 82.9059 10.8964C82.4478 11.4363 81.8425 11.8698 81.0899 12.197C80.3374 12.5242 79.4212 12.6878 78.3415 12.6878H75.7157V19.2154H73.3354V1.47313H78.0715ZM78.317 10.4056C79.0204 10.4056 79.6012 10.2911 80.0593 10.062C80.5174 9.83301 80.8773 9.54671 81.139 9.20316C81.4008 8.84324 81.5889 8.46696 81.7034 8.07433C81.818 7.68169 81.8752 7.32995 81.8752 7.01912C81.8752 6.6592 81.818 6.2911 81.7034 5.91483C81.5889 5.52219 81.3926 5.17045 81.1145 4.85962C80.8527 4.53242 80.501 4.27066 80.0593 4.07435C79.6339 3.86167 79.1022 3.75533 78.4642 3.75533H75.7157V10.4056H78.317Z" fill="#222222"/>
<path d="M84.4615 19.2154L92.216 0.736938H92.3633L100.093 19.2154H97.3694L91.578 4.46698L93.2713 3.36269L86.7927 19.2154H84.4615ZM89.0013 12.4915H95.6025L96.3878 14.5528H88.3142L89.0013 12.4915Z" fill="#222222"/>
<path d="M112.613 4.63876C112.007 4.32792 111.345 4.05799 110.625 3.82895C109.905 3.59991 109.202 3.48539 108.515 3.48539C107.566 3.48539 106.805 3.70625 106.232 4.14797C105.676 4.58968 105.398 5.17863 105.398 5.91483C105.398 6.47106 105.578 6.9455 105.938 7.33813C106.298 7.71441 106.772 8.04161 107.361 8.31972C107.95 8.59784 108.564 8.8596 109.202 9.105C109.758 9.31767 110.306 9.55489 110.846 9.81665C111.386 10.0784 111.868 10.4056 112.294 10.7982C112.735 11.1909 113.079 11.6735 113.324 12.2461C113.586 12.8187 113.717 13.5303 113.717 14.381C113.717 15.3136 113.48 16.1643 113.005 16.9332C112.547 17.7021 111.885 18.3074 111.018 18.7491C110.151 19.1908 109.12 19.4117 107.926 19.4117C107.14 19.4117 106.388 19.3217 105.668 19.1418C104.965 18.9618 104.31 18.7328 103.705 18.4546C103.1 18.1602 102.56 17.8575 102.085 17.5467L103.14 15.6817C103.533 15.9598 103.983 16.2297 104.49 16.4915C104.997 16.7369 105.529 16.9414 106.085 17.105C106.641 17.2522 107.181 17.3258 107.705 17.3258C108.261 17.3258 108.809 17.2277 109.349 17.0313C109.905 16.8187 110.363 16.4996 110.723 16.0743C111.083 15.6489 111.263 15.0845 111.263 14.381C111.263 13.7757 111.1 13.2768 110.772 12.8841C110.461 12.4751 110.044 12.1316 109.521 11.8534C108.997 11.559 108.441 11.2972 107.852 11.0682C107.296 10.8555 106.731 10.6265 106.159 10.3811C105.586 10.1193 105.055 9.80847 104.564 9.44855C104.073 9.07228 103.68 8.6142 103.386 8.07433C103.091 7.53445 102.944 6.88006 102.944 6.11115C102.944 5.17864 103.165 4.36882 103.607 3.68171C104.065 2.97824 104.686 2.43018 105.472 2.03755C106.257 1.62855 107.157 1.40769 108.171 1.37497C109.316 1.37497 110.322 1.51403 111.189 1.79215C112.073 2.07027 112.85 2.41382 113.521 2.82282L112.613 4.63876Z" fill="#222222"/>
<path d="M126.896 4.63876C126.29 4.32792 125.628 4.05799 124.908 3.82895C124.188 3.59991 123.485 3.48539 122.798 3.48539C121.849 3.48539 121.088 3.70625 120.515 4.14797C119.959 4.58968 119.681 5.17863 119.681 5.91483C119.681 6.47106 119.861 6.9455 120.221 7.33813C120.581 7.71441 121.055 8.04161 121.644 8.31972C122.233 8.59784 122.847 8.8596 123.485 9.105C124.041 9.31767 124.589 9.55489 125.129 9.81665C125.669 10.0784 126.151 10.4056 126.577 10.7982C127.018 11.1909 127.362 11.6735 127.607 12.2461C127.869 12.8187 128 13.5303 128 14.381C128 15.3136 127.763 16.1643 127.288 16.9332C126.83 17.7021 126.168 18.3074 125.301 18.7491C124.434 19.1908 123.403 19.4117 122.209 19.4117C121.423 19.4117 120.671 19.3217 119.951 19.1418C119.247 18.9618 118.593 18.7328 117.988 18.4546C117.382 18.1602 116.843 17.8575 116.368 17.5467L117.423 15.6817C117.816 15.9598 118.266 16.2297 118.773 16.4915C119.28 16.7369 119.812 16.9414 120.368 17.105C120.924 17.2522 121.464 17.3258 121.988 17.3258C122.544 17.3258 123.092 17.2277 123.632 17.0313C124.188 16.8187 124.646 16.4996 125.006 16.0743C125.366 15.6489 125.546 15.0845 125.546 14.381C125.546 13.7757 125.382 13.2768 125.055 12.8841C124.744 12.4751 124.327 12.1316 123.804 11.8534C123.28 11.559 122.724 11.2972 122.135 11.0682C121.579 10.8555 121.014 10.6265 120.442 10.3811C119.869 10.1193 119.337 9.80847 118.847 9.44855C118.356 9.07228 117.963 8.6142 117.669 8.07433C117.374 7.53445 117.227 6.88006 117.227 6.11115C117.227 5.17864 117.448 4.36882 117.89 3.68171C118.348 2.97824 118.969 2.43018 119.755 2.03755C120.54 1.62855 121.44 1.40769 122.454 1.37497C123.599 1.37497 124.605 1.51403 125.472 1.79215C126.356 2.07027 127.133 2.41382 127.804 2.82282L126.896 4.63876Z" fill="#222222"/>
<path d="M63.6518 42.8576H61.1524L55.1816 35.128H54.4873V42.8576H52.4971V25.9172H55.9685C57.8199 25.9172 59.0927 26.0021 59.787 26.1718C60.4813 26.3261 61.083 26.5961 61.5921 26.9818C62.1012 27.3675 62.5024 27.8689 62.7955 28.4861C63.0887 29.0878 63.2352 29.7589 63.2352 30.4995C63.2352 31.9034 62.7569 33.0297 61.8004 33.8783C60.8438 34.7114 59.463 35.128 57.6579 35.128L63.6518 42.8576ZM54.4873 33.184H57.195C58.5527 33.1994 59.5556 32.9989 60.2035 32.5823C60.8515 32.1503 61.1755 31.4714 61.1755 30.5457C61.1755 29.6046 60.8593 28.9258 60.2267 28.5092C59.5941 28.0772 58.6067 27.8612 57.2644 27.8612H54.4873V33.184Z" fill="#222222"/>
<path d="M76.3437 27.8843H68.4752V32.7443H76.2742V34.6883H68.4752V40.8905H76.2742V42.8576H66.4849V25.9172H76.3437V27.8843Z" fill="#222222"/>
<path d="M93.8194 42.8576H91.7134L89.0983 37.1877H82.1092L79.5173 42.8576H77.3187L85.3261 25.2461H85.9278L93.8194 42.8576ZM88.1957 35.1743L85.6269 29.458L83.035 35.1743H88.1957Z" fill="#222222"/>
<path d="M104.401 42.8576H96.0002V25.9172H98.0136V40.9368H104.401V42.8576Z" fill="#222222"/>
<path d="M114.489 27.8612H110.786V42.8576H108.773V27.8612H105.047V25.9172H114.489V27.8612Z" fill="#222222"/>
<path d="M127.976 25.9172L122.561 34.804V42.8576H120.617V34.804L115.109 25.9172H117.423L121.566 32.6054L125.662 25.9172H127.976Z" fill="#222222"/>
<path d="M36.981 9.48376V5.10388H37.5815V9.38123L40.6646 6.09998L41.104 6.50916L41.1021 6.51013L41.0552 6.56091L37.9663 9.90759H42.6851V10.5082H38.0063L41.0962 13.599L40.8833 13.8109L40.6714 14.0228L37.5815 10.933V15.3119H36.981V10.8978L31.7954 16.4183L31.5767 16.2133L31.3579 16.0072L36.5229 10.5082H21.0601L21.4663 10.9144L21.0913 11.2894L20.1665 10.3636L19.979 10.1761L21.0913 9.06384L21.4663 9.43884L20.9966 9.90759H36.5552L31.064 4.41541L31.2759 4.20349L31.4888 3.99158L36.981 9.48376ZM20.728 10.1761L20.7681 10.2162V10.1361L20.728 10.1761Z" fill="white"/>
</svg>
