<svg width="166" height="56" viewBox="0 0 166 56" fill="none" xmlns="http://www.w3.org/2000/svg">
<path class="color-red" d="M40.9536 1.16808C46.5719 1.16808 51.6043 2.61953 55.1948 4.9044C58.799 7.19803 60.8119 10.2232 60.812 13.38C60.812 16.5368 58.7989 19.5619 55.1948 21.8556C51.6043 24.1404 46.5719 25.5919 40.9536 25.5919C35.3355 25.5918 30.3038 24.1404 26.7134 21.8556C23.1092 19.5619 21.0962 16.5368 21.0962 13.38C21.0963 10.2232 23.1092 7.19804 26.7134 4.9044C30.3038 2.61959 35.3355 1.16814 40.9536 1.16808Z" stroke="white" stroke-width="2.3362"/>
<path d="M18.3312 23.2013C17.9493 23.4559 17.4295 23.7423 16.7718 24.0605C16.1141 24.3788 15.3397 24.644 14.4486 24.8562C13.5787 25.0683 12.6239 25.1744 11.5843 25.1744C9.8021 25.1532 8.18963 24.835 6.7469 24.2197C5.32538 23.6044 4.11603 22.7663 3.11885 21.7055C2.12167 20.6447 1.34726 19.4247 0.795625 18.0456C0.265208 16.6453 0 15.1602 0 13.5901C0 11.8716 0.275817 10.2909 0.82745 8.8482C1.4003 7.38425 2.19593 6.12186 3.21433 5.06102C4.23273 3.97897 5.43147 3.14091 6.81055 2.54685C8.21085 1.95278 9.73845 1.65575 11.3934 1.65575C12.7724 1.65575 14.0242 1.8467 15.1487 2.2286C16.2732 2.58928 17.2385 3.02422 18.0448 3.53342L16.8036 6.39767C16.1671 5.97334 15.3927 5.57022 14.4804 5.18832C13.5893 4.80642 12.5921 4.61547 11.4888 4.61547C10.3643 4.61547 9.30351 4.83825 8.30633 5.2838C7.30914 5.72935 6.42865 6.35524 5.66485 7.16147C4.90105 7.96771 4.29638 8.91185 3.85083 9.9939C3.42649 11.0547 3.21433 12.2004 3.21433 13.431C3.21433 14.6828 3.40528 15.8497 3.78718 16.9317C4.19029 17.9926 4.75253 18.9155 5.4739 19.7005C6.21648 20.4855 7.10758 21.1008 8.1472 21.5464C9.18682 21.9919 10.3537 22.2147 11.648 22.2147C12.8149 22.2147 13.8545 22.0344 14.7668 21.6737C15.6791 21.313 16.4323 20.9099 17.0264 20.4643L18.3312 23.2013Z" fill="white"/>
<path d="M65.6127 24.9198V1.17837H65.6446L77.7063 18.3002L76.4014 18.0456L88.4313 1.17837H88.4949V24.9198H85.4397V8.17987L85.6307 9.7393L76.9425 22.0237H76.8788L68.0633 9.7393L68.6043 8.30717V24.9198H65.6127Z" fill="white"/>
<path d="M101.249 1.91035C102.925 1.91035 104.357 2.19677 105.545 2.76962C106.734 3.32126 107.646 4.12749 108.282 5.18832C108.94 6.24916 109.269 7.53276 109.269 9.03915C109.269 9.95146 109.131 10.8532 108.855 11.7443C108.579 12.6142 108.134 13.4098 107.519 14.1311C106.924 14.8313 106.139 15.3935 105.164 15.8179C104.188 16.2422 102.999 16.4544 101.599 16.4544H98.1938V24.9198H95.1068V1.91035H101.249ZM101.567 13.4946C102.48 13.4946 103.233 13.3461 103.827 13.0491C104.421 12.7521 104.888 12.3808 105.227 11.9352C105.567 11.4685 105.811 10.9805 105.959 10.4713C106.108 9.96207 106.182 9.50591 106.182 9.1028C106.182 8.63603 106.108 8.15865 105.959 7.67067C105.811 7.16147 105.556 6.70531 105.195 6.3022C104.856 5.87786 104.4 5.5384 103.827 5.2838C103.275 5.00798 102.586 4.87007 101.758 4.87007H98.1938V13.4946H101.567Z" fill="white"/>
<path d="M109.536 24.9198L119.593 0.955597H119.784L129.809 24.9198H126.276L118.765 5.793L120.961 4.36087L112.559 24.9198H109.536ZM115.424 16.1998H123.985L125.003 18.8731H114.532L115.424 16.1998Z" fill="white"/>
<path d="M146.045 6.01577C145.26 5.61266 144.4 5.26258 143.467 4.96555C142.533 4.66851 141.621 4.52 140.73 4.52C139.499 4.52 138.513 4.80642 137.77 5.37927C137.049 5.95212 136.688 6.71592 136.688 7.67067C136.688 8.39204 136.922 9.00732 137.388 9.51652C137.855 10.0045 138.47 10.4288 139.234 10.7895C139.998 11.1502 140.794 11.4897 141.621 11.8079C142.342 12.0837 143.053 12.3914 143.753 12.7308C144.453 13.0703 145.079 13.4946 145.631 14.0038C146.204 14.513 146.649 15.1389 146.968 15.8815C147.307 16.6241 147.477 17.547 147.477 18.6503C147.477 19.8596 147.169 20.9629 146.554 21.9601C145.96 22.9573 145.101 23.7423 143.976 24.3151C142.852 24.888 141.515 25.1744 139.966 25.1744C138.948 25.1744 137.972 25.0577 137.038 24.8243C136.126 24.591 135.277 24.2939 134.492 23.9332C133.707 23.5513 133.007 23.1588 132.392 22.7557L133.76 20.337C134.269 20.6977 134.853 21.0478 135.511 21.3872C136.168 21.7055 136.858 21.9707 137.579 22.1829C138.301 22.3738 139.001 22.4693 139.68 22.4693C140.401 22.4693 141.112 22.342 141.812 22.0874C142.533 21.8116 143.127 21.3979 143.594 20.8462C144.061 20.2946 144.294 19.5626 144.294 18.6503C144.294 17.8653 144.082 17.2182 143.658 16.709C143.255 16.1786 142.714 15.733 142.035 15.3723C141.356 14.9904 140.634 14.651 139.871 14.3539C139.149 14.0781 138.417 13.7811 137.675 13.4628C136.932 13.1234 136.243 12.7202 135.606 12.2535C134.97 11.7655 134.46 11.1714 134.079 10.4713C133.697 9.77112 133.506 8.92246 133.506 7.92527C133.506 6.71592 133.792 5.6657 134.365 4.7746C134.959 3.86228 135.765 3.15152 136.784 2.64232C137.802 2.1119 138.969 1.82548 140.284 1.78305C141.77 1.78305 143.074 1.96339 144.199 2.32407C145.345 2.68476 146.352 3.13031 147.222 3.66072L146.045 6.01577Z" fill="white"/>
<path d="M164.568 6.01577C163.783 5.61266 162.924 5.26258 161.99 4.96555C161.057 4.66851 160.144 4.52 159.253 4.52C158.023 4.52 157.036 4.80642 156.293 5.37927C155.572 5.95212 155.211 6.71592 155.211 7.67067C155.211 8.39204 155.445 9.00732 155.911 9.51652C156.378 10.0045 156.994 10.4288 157.757 10.7895C158.521 11.1502 159.317 11.4897 160.144 11.8079C160.866 12.0837 161.576 12.3914 162.276 12.7308C162.977 13.0703 163.603 13.4946 164.154 14.0038C164.727 14.513 165.173 15.1389 165.491 15.8815C165.83 16.6241 166 17.547 166 18.6503C166 19.8596 165.692 20.9629 165.077 21.9601C164.483 22.9573 163.624 23.7423 162.499 24.3151C161.375 24.888 160.038 25.1744 158.489 25.1744C157.471 25.1744 156.495 25.0577 155.561 24.8243C154.649 24.591 153.8 24.2939 153.015 23.9332C152.23 23.5513 151.53 23.1588 150.915 22.7557L152.283 20.337C152.793 20.6977 153.376 21.0478 154.034 21.3872C154.692 21.7055 155.381 21.9707 156.102 22.1829C156.824 22.3738 157.524 22.4693 158.203 22.4693C158.924 22.4693 159.635 22.342 160.335 22.0874C161.057 21.8116 161.651 21.3979 162.117 20.8462C162.584 20.2946 162.817 19.5626 162.817 18.6503C162.817 17.8653 162.605 17.2182 162.181 16.709C161.778 16.1786 161.237 15.733 160.558 15.3723C159.879 14.9904 159.158 14.651 158.394 14.3539C157.672 14.0781 156.94 13.7811 156.198 13.4628C155.455 13.1234 154.766 12.7202 154.129 12.2535C153.493 11.7655 152.984 11.1714 152.602 10.4713C152.22 9.77112 152.029 8.92246 152.029 7.92527C152.029 6.71592 152.315 5.6657 152.888 4.7746C153.482 3.86228 154.288 3.15152 155.307 2.64232C156.325 2.1119 157.492 1.82548 158.808 1.78305C160.293 1.78305 161.598 1.96339 162.722 2.32407C163.868 2.68476 164.876 3.13031 165.745 3.66072L164.568 6.01577Z" fill="white"/>
<path d="M82.5483 55.5809H79.3069L71.5635 45.5565H70.6632V55.5809H68.082V33.6114H72.584C74.985 33.6114 76.6357 33.7214 77.5361 33.9415C78.4365 34.1416 79.2169 34.4917 79.8771 34.992C80.5374 35.4922 81.0577 36.1424 81.4378 36.9428C81.818 37.7231 82.0081 38.5935 82.0081 39.5539C82.0081 41.3747 81.3878 42.8354 80.1473 43.9358C78.9067 45.0163 77.1159 45.5565 74.7749 45.5565L82.5483 55.5809ZM70.6632 43.0354H74.1747C75.9354 43.0554 77.236 42.7953 78.0764 42.2551C78.9167 41.6949 79.3369 40.8145 79.3369 39.614C79.3369 38.3934 78.9267 37.513 78.1064 36.9728C77.286 36.4126 76.0055 36.1324 74.2647 36.1324H70.6632V43.0354Z" fill="white"/>
<path d="M99.0081 36.1625H88.8037V42.4652H98.9181V44.9863H88.8037V53.0298H98.9181V55.5809H86.2226V33.6114H99.0081V36.1625Z" fill="white"/>
<path d="M121.672 55.5809H118.941L115.549 48.2277H106.485L103.124 55.5809H100.273L110.657 32.741H111.437L121.672 55.5809ZM114.379 45.6166L111.047 38.2033L107.686 45.6166H114.379Z" fill="white"/>
<path d="M135.395 55.5809H124.5V33.6114H127.111V53.0898H135.395V55.5809Z" fill="white"/>
<path d="M148.478 36.1324H143.676V55.5809H141.065V36.1324H136.233V33.6114H148.478V36.1324Z" fill="white"/>
<path d="M165.969 33.6114L158.946 45.1364V55.5809H156.425V45.1364L149.282 33.6114H152.283L157.655 42.2851L162.968 33.6114H165.969Z" fill="white"/>
<path d="M47.96 12.2986V6.61987H48.7393V12.1677L52.7383 7.91089L53.3086 8.44116L49.2393 12.8503H55.3584V13.6287H49.29L53.2979 17.6365L52.7471 18.1873L48.7393 14.1794V19.8582H47.96V14.1345L41.2354 21.2927L40.9521 21.0261L40.668 20.7595L47.3672 13.6287H27.3135L27.8398 14.155L27.5967 14.3982L27.3525 14.6414L25.9102 13.199L26.1533 12.9548L27.3525 11.7556L27.5967 11.9988L27.8398 12.2419L27.2305 12.8503H47.4102L40.2871 5.72729L40.8379 5.17651L47.96 12.2986ZM26.8828 13.198L26.9346 13.2498V13.1462L26.8828 13.198Z" fill="white"/>
</svg>
