<svg width="1440" height="443" viewBox="0 0 1440 443" fill="none" xmlns="http://www.w3.org/2000/svg">
<rect width="1440" height="443" fill="#E84923"/>
  <path  class="line" d="M0.402344 56.0718L74.3278 44.6017" stroke="white" stroke-width="5"/>
  <path  class="line" d="M118.782 55.1992L189.989 31.7012" stroke="white" stroke-width="5"/>
  <path  class="line" d="M237.002 54.3292L303.938 19.9629" stroke="white" stroke-width="5"/>
  <path  class="line" d="M355.098 53.5085L416.723 9.81905" stroke="white" stroke-width="5"/>
  <path  class="line" d="M473.036 52.8436L529.056 1.73842" stroke="white" stroke-width="5"/>
  <path  class="line" d="M590.613 59.9524L641.852 3.75296" stroke="white" stroke-width="5"/>
  <path  class="line" d="M708.277 60.1487L757.358 1.93264" stroke="white" stroke-width="5"/>
  <path  class="line" d="M826.017 60.7952L878.471 5.80489" stroke="white" stroke-width="5"/>
  <path  class="line" d="M943.594 54.8877L1007.59 14.9913" stroke="white" stroke-width="5"/>
  <path  class="line" d="M1060.43 56.6785L1135.08 52.6128" stroke="white" stroke-width="5"/>
  <path  class="line" d="M1176.62 57.809L1242.51 94.2699" stroke="white" stroke-width="5"/>
  <path  class="line" d="M1293.06 58.1575L1338.27 119.625" stroke="white" stroke-width="5"/>
  <path  class="line" d="M1409.81 58.1686L1433.09 131.513" stroke="white" stroke-width="5"/>
  <path  class="line" d="M0.689941 167.091L72.6021 146.007" stroke="white" stroke-width="5"/>
  <path  class="line" d="M118.957 166.091L186.194 132.357" stroke="white" stroke-width="5"/>
  <path  class="line" d="M237.059 165.086L297.725 119.99" stroke="white" stroke-width="5"/>
  <path  class="line" d="M355 164.123L407.632 109.313" stroke="white" stroke-width="5"/>
  <path  class="line" d="M472.675 163.417L516.413 100.826" stroke="white" stroke-width="5"/>
  <path  class="line" d="M590.146 163.213L625.035 94.9534" stroke="white" stroke-width="5"/>
  <path  class="line" d="M707.741 163.259L735.4 91.5554" stroke="white" stroke-width="5"/>
  <path  class="line" d="M825.528 163.668L851.18 91.1736" stroke="white" stroke-width="5"/>
  <path  class="line" d="M943.529 164.985L983.349 99.6653" stroke="white" stroke-width="5"/>
  <path  class="line" d="M1060.13 168.22L1134.23 158.059" stroke="white" stroke-width="5"/>
  <path  class="line" d="M1175.41 169.36L1232.21 219.536" stroke="white" stroke-width="5"/>
  <path  class="line" d="M1292 169.357L1323.51 239.344" stroke="white" stroke-width="5"/>
  <path  class="line" d="M1409.02 169.242L1419.44 245.669" stroke="white" stroke-width="5"/>
  <path  class="line" d="M0.861328 278.165L70.0424 248.92" stroke="white" stroke-width="5"/>
  <path  class="line" d="M119.022 277.061L181.615 234.863" stroke="white" stroke-width="5"/>
  <path  class="line" d="M236.984 275.954L290.735 222.314" stroke="white" stroke-width="5"/>
  <path  class="line" d="M354.733 274.877L397.699 211.718" stroke="white" stroke-width="5"/>
  <path  class="line" d="M472.204 274.12L502.819 203.708" stroke="white" stroke-width="5"/>
  <path  class="line" d="M589.494 273.833L606.618 198.705" stroke="white" stroke-width="5"/>
  <path  class="line" d="M706.871 273.706L709.812 196.585" stroke="white" stroke-width="5"/>
  <path  class="line" d="M1055.04 279.549L1077.7 353.1" stroke="white" stroke-width="5"/>
  <path  class="line" d="M1173.08 279.97L1191.3 354.824" stroke="white" stroke-width="5"/>
  <path  class="line" d="M1290.66 280.051L1295.63 357.061" stroke="white" stroke-width="5"/>
  <path  class="line" d="M1408.11 280.024L1399.22 356.657" stroke="white" stroke-width="5"/>
  <path  class="line" d="M0.947266 389.332L67.1678 353.519" stroke="white" stroke-width="5"/>
  <path  class="line" d="M119.004 388.152L176.933 339.368" stroke="white" stroke-width="5"/>
  <path  class="line" d="M236.831 386.969L283.914 327.021" stroke="white" stroke-width="5"/>
  <path  class="line" d="M354.417 385.829L388.328 317.047" stroke="white" stroke-width="5"/>
  <path  class="line" d="M471.687 384.984L490.319 310.24" stroke="white" stroke-width="5"/>
  <path  class="line" d="M588.787 384.664L590.158 307.497" stroke="white" stroke-width="5"/>
  <path  class="line" d="M705.854 384.485L687.806 309.588" stroke="white" stroke-width="5"/>
  <path  class="line" d="M822.763 384.403L782.254 319.536" stroke="white" stroke-width="5"/>
  <path  class="line" d="M939.018 384.566L872.504 349.337" stroke="white" stroke-width="5"/>
  <path  class="line" d="M1047.25 357.77L981.034 393.594" stroke="white" stroke-width="5"/>
</svg>
